<svg viewBox="0 0 340 230" xmlns="http://www.w3.org/2000/svg" aria-hidden="true">
  <rect x="66" y="71" width="208" height="88" rx="14" fill="#f4f4f5"/>

  <g stroke="#000" stroke-width="12" stroke-linecap="round" stroke-linejoin="round" fill="none">
    <path d="M 40 91 L 40 45 L 86 45"/>
    <path d="M 300 91 L 300 45 L 254 45"/>
    <path d="M 40 139 L 40 185 L 86 185"/>
    <path d="M 300 139 L 300 185 L 254 185"/>
  </g>

  <g fill="#000">
    <rect x="70"  y="79" width="16" height="72" rx="6"/>
    <rect x="93"  y="79" width="10" height="72" rx="6"/>
    <rect x="110" y="79" width="8"  height="72" rx="6"/>
    <rect x="125" y="79" width="10" height="72" rx="6"/>
    <rect x="142" y="79" width="18" height="72" rx="6"/>
    <rect x="167" y="79" width="8"  height="72" rx="6"/>
    <rect x="182" y="79" width="10" height="72" rx="6"/>
    <rect x="199" y="79" width="16" height="72" rx="6"/>
    <rect x="222" y="79" width="8"  height="72" rx="6"/>
    <rect x="237" y="79" width="10" height="72" rx="6"/>
    <rect x="254" y="79" width="16" height="72" rx="6"/>
  </g>


  <line x1="74" x2="266" y1="81" y2="81" stroke="#9334eb" stroke-width="4" stroke-linecap="round" opacity="0.9">
    <animate attributeName="y1" values="81;149;81" dur="1.8s" repeatCount="indefinite"/>
    <animate attributeName="y2" values="81;149;81" dur="1.8s" repeatCount="indefinite"/>
  </line>
</svg>
