<svg xmlns="http://www.w3.org/2000/svg" width="24" height="24" viewBox="0 0 24 24" fill="none">
  <path d="M16 4h1a2 2 0 0 1 2 2v12a3 3 0 0 1-3 3H8a3 3 0 0 1-3-3V6a2 2 0 0 1 2-2h1"
        stroke="#000" stroke-width="2" stroke-linecap="round" stroke-linejoin="round"/>
  <rect x="9" y="2" width="6" height="4" rx="1" stroke="#000" stroke-width="2"/>
  <path d="M11 10h7M11 14h7" stroke="#000" stroke-width="2" stroke-linecap="round"/>
  <path d="M6.5 10l1.5 1.5l2.5-2.5M6.5 14l1.5 1.5l2.5-2.5"
        stroke="#000" stroke-width="2" stroke-linecap="round" stroke-linejoin="round"/>
</svg>
