<svg xmlns="http://www.w3.org/2000/svg" width="256" height="256" viewBox="0 0 256 256" role="img" aria-label="Warung Emak + Tong Besar">
  <circle cx="128" cy="128" r="120" fill="#EFDD8D"/>
  <circle cx="128" cy="70" r="28" fill="#5C3D2E"/>
  <ellipse cx="80" cy="130" rx="20" ry="28" fill="#5C3D2E"/>
  <ellipse cx="176" cy="130" rx="20" ry="28" fill="#5C3D2E"/>
  <circle cx="128" cy="142" r="56" fill="#FFE0BD" stroke="#5C3D2E" stroke-width="4"/>
  <circle cx="104" cy="142" r="20" fill="none" stroke="#5C3D2E" stroke-width="5"/>
  <circle cx="104" cy="142" r="6" fill="#2D2D2D"/> 
  <circle cx="152" cy="142" r="20" fill="none" stroke="#5C3D2E" stroke-width="5"/>
  <circle cx="152" cy="142" r="6" fill="#2D2D2D"/> 
  <line x1="124" y1="142" x2="132" y2="142" stroke="#5C3D2E" stroke-width="4"/>
  <path d="M110 166 Q128 182 146 166" stroke="#5C3D2E" stroke-width="5" fill="none" stroke-linecap="round"/>
  <circle cx="98" cy="154" r="7" fill="#F4A7A7" opacity="0.8"/>
  <circle cx="158" cy="154" r="7" fill="#F4A7A7" opacity="0.8"/>
  <g transform="translate(160,150) scale(1)">
    <rect x="0" y="20" width="60" height="70" rx="8" fill="#5C3D2E"/>
    <rect x="-8" y="16" width="76" height="10" rx="3" fill="#5C3D2E"/>
    <rect x="12" y="30" width="6" height="50" rx="2" fill="#EFDD8D"/>
    <rect x="27" y="30" width="6" height="50" rx="2" fill="#EFDD8D"/>
    <rect x="42" y="30" width="6" height="50" rx="2" fill="#EFDD8D"/>
  </g>
</svg>
